<?xml version="1.0" encoding="UTF-8" standalone="no"?>
<!-- Created with Inkscape (http://www.inkscape.org/) -->

<svg
   width="48"
   height="48"
   viewBox="0 0 12.7 12.7"
   version="1.1"
   id="svg5"
   xmlns="http://www.w3.org/2000/svg"
   xmlns:svg="http://www.w3.org/2000/svg">
  <defs
     id="defs2" />
  <g
     id="layer1">
    <g
       aria-label="P"
       transform="matrix(1.0193815,0,-0.06248503,0.980987,0,0)"
       id="text1045"
       style="font-size:15.1677px;line-height:1.25;letter-spacing:0px;word-spacing:0px;stroke-width:0.379194">
      <path
         id="path23252"
         style="font-weight:bold;font-family:'Droid Sans';-inkscape-font-specification:'Droid Sans Bold';stroke-width:1.43317;fill:#084d70;fill-opacity:1"
         d="M 11.738281 3.9277344 L 11 15.535156 L 16.726562 15.535156 L 23.283203 8.0996094 L 27.224609 19.833984 L 31.34375 15.535156 L 38.054688 15.535156 C 38.075016 13.942584 37.871325 12.497412 37.441406 11.203125 C 36.931792 9.6470941 36.07408 8.3391059 34.867188 7.2773438 C 33.680483 6.1972754 32.124366 5.3741343 30.201172 4.8066406 C 28.298167 4.2208392 26.006423 3.9277344 23.324219 3.9277344 L 11.738281 3.9277344 z M 22.072266 13.464844 L 18.277344 17.775391 L 10.855469 17.775391 L 9.1816406 44.072266 L 18.027344 44.072266 L 18.9375 29.792969 L 20.962891 29.792969 C 24.006527 29.792969 26.578591 29.427562 28.679688 28.695312 C 30.799806 27.963063 32.527704 26.984331 33.861328 25.757812 C 35.213975 24.531294 36.216823 23.112903 36.871094 21.501953 C 37.35905 20.300524 37.694559 19.058276 37.880859 17.775391 L 32.820312 17.775391 L 25.931641 24.960938 L 22.072266 13.464844 z "
         transform="matrix(0.25955281,0,0.0165325,0.26971136,0,0)" />
    </g>
  </g>
</svg>
